<svg xmlns="http://www.w3.org/2000/svg" viewBox="0 0 520 110"><g transform="translate(0 10)" stroke="#FFFFFF" stroke-width="2.2" stroke-linejoin="round"><path d="M0 89A89 89 0 0 1 89 0V89Z" fill="#8E6718"/><path d="M89 0A55 55 0 0 1 144 55H89Z" fill="#B98A24"/><path d="M144 55A34 34 0 0 1 110 89V55Z" fill="#DDAA2F"/><path d="M110 89A21 21 0 0 1 89 68H110Z" fill="#F2C75C"/><path d="M89 68A13 13 0 0 1 102 55V68Z" fill="#0D0D0D"/><path d="M102 55A8 8 0 0 1 110 63H102Z" fill="#DDAA2F"/></g><text x="168" y="72" font-family="Syne, sans-serif" font-weight="700" font-size="64" letter-spacing="-2" fill="#0D0D0D">Skavyra</text><text x="170" y="100" font-family="Manrope, sans-serif" font-weight="600" font-size="12" letter-spacing="4.5" fill="#8E6718">LEARN  |  BUILD  |  GROW</text></svg>
